# xmcd
#
# Track frame offsets:
#	150
#	23281
#	40673
#	51945
#	69318
#	86391
#	99485
#	112577
#	129297
#	144260
#	160306
#
# Disc length: 2330 seconds
#
# Revision: 1
# Processed by: cddbd v1.5.2PL0 Copyright (c) Steve Scherf et al.
# Submitted via: audiograbber 1.83.01
#
DISCID=7509180b
DTITLE=Jeff Tweedy - Together At Last
DYEAR=2017
DGENRE=Country
TTITLE0=Via Chicago
TTITLE1=Laminated Cat
TTITLE2=Lost Love
TTITLE3=Muzzle Of Bees
TTITLE4=Ashes Of American Flags
TTITLE5=Dawned On Me
TTITLE6=In A Future Age
TTITLE7=I Am Trying To Break Your Heart
TTITLE8=Hummingbird
TTITLE9=I'm Always In Love
TTITLE10=Sky Blue Sky
EXTD=
EXTT0=
EXTT1=
EXTT2=
EXTT3=
EXTT4=
EXTT5=
EXTT6=
EXTT7=
EXTT8=
EXTT9=
EXTT10=
PLAYORDER=
